<?xml version="1.0" encoding="utf-8"?>
<!-- Generator: Adobe Illustrator 16.0.0, SVG Export Plug-In . SVG Version: 6.00 Build 0)  -->
<!DOCTYPE svg PUBLIC "-//W3C//DTD SVG 1.1//EN" "http://www.w3.org/Graphics/SVG/1.1/DTD/svg11.dtd">
<svg version="1.1" id="Layer_1" xmlns="http://www.w3.org/2000/svg" xmlns:xlink="http://www.w3.org/1999/xlink" x="0px" y="0px"
	 width="100px" height="100px" viewBox="0 0 100 100" style="enable-background:new 0 0 100 100;" xml:space="preserve">
<g>
	<path style="fill:#009245;" d="M100,94c0,3.313-2.687,6-6,6H6c-3.313,0-6-2.687-6-6V6c0-3.313,2.687-6,6-6h88c3.313,0,6,2.687,6,6
		V94z"/>
	<g>
		<path style="fill:#FFFFFF;" d="M90,27.143v46.286C90,74.125,90,76,90,76s-2.304,0-3,0H15c-0.696,0-3,0-3,0s0-1.875,0-2.571V27.143
			C12,26.447,12,25,12,25s2.304,0,3,0h72c0.696,0,3,0,3,0S90,26.447,90,27.143z M84,60.571V40c-2,0-5.049-0.861-7.059-2.87
			C74.934,35.12,74.143,33,74.143,30H27.857c0,3-0.791,5.12-2.799,7.13C23.049,39.139,20,40,18,40v20.571
			c2,0,5.049,1.076,7.059,3.085C27.066,65.665,27.857,68,27.857,71h46.285c0-3,0.791-5.335,2.799-7.344
			C78.951,61.647,82,60.571,84,60.571z M63.014,44.58c0.562,1.929,0.844,3.831,0.844,5.705c0,1.876-0.281,3.777-0.844,5.706
			s-1.36,3.724-2.391,5.384c-1.031,1.661-2.391,3.014-4.078,4.059C54.857,66.478,53.009,67,51,67s-3.857-0.522-5.545-1.566
			c-1.688-1.045-3.047-2.397-4.078-4.059c-1.031-1.66-1.828-3.455-2.391-5.384s-0.844-3.83-0.844-5.706
			c0-1.874,0.281-3.776,0.844-5.705c0.562-1.928,1.359-3.723,2.391-5.384c1.031-1.66,2.391-3.013,4.078-4.058
			s3.536-1.567,5.545-1.567s3.857,0.522,5.545,1.567s3.047,2.397,4.078,4.058C61.653,40.857,62.451,42.652,63.014,44.58z M44,61h14
			v-4h-4V39h-5.009l-5.946,5.361l3.094,3.072C47.264,46.442,48,46,48.349,45H48v12h-4V61z"/>
	</g>
</g>
</svg>
